<svg width="1200" height="1200" viewBox="0 0 1200 1200" fill="none" xmlns="http://www.w3.org/2000/svg" aria-hidden="true" role="img">
  <rect width="1200" height="1200" fill="#FFFFFF"/>
  <defs>
    <pattern id="bergman-triathlon-pattern" patternUnits="userSpaceOnUse" width="480" height="480">
      <rect width="480" height="480" fill="#FFFFFF"/>
      <g opacity="0.035" fill="none" stroke="#EEEEEE" stroke-width="1" stroke-linecap="round" stroke-linejoin="round">
        <!-- Topographic contour flow -->
        <path d="M-40 56C30 28 86 28 146 54C206 80 270 82 334 56C394 32 446 30 520 58"/>
        <path d="M-40 106C18 84 80 86 136 106C194 128 256 130 320 108C382 86 438 84 520 108"/>
        <path d="M-40 168C18 144 84 142 144 166C206 192 266 194 326 170C388 146 442 146 520 170"/>
        <path d="M-40 230C22 208 88 208 148 228C210 250 274 252 336 230C396 210 448 210 520 230"/>
        <path d="M-40 292C18 270 82 270 144 292C204 312 266 314 328 292C390 272 444 270 520 294"/>
        <path d="M-40 354C18 334 86 334 150 354C212 374 274 376 338 354C400 334 452 334 520 356"/>
        <path d="M-40 416C22 392 86 392 146 414C206 436 268 438 330 416C392 394 446 394 520 418"/>

        <!-- Swim-course inspired loops -->
        <ellipse cx="166" cy="140" rx="62" ry="36" transform="rotate(-18 166 140)"/>
        <ellipse cx="166" cy="140" rx="36" ry="20" transform="rotate(-18 166 140)"/>
        <ellipse cx="350" cy="116" rx="78" ry="44" transform="rotate(12 350 116)"/>
        <ellipse cx="350" cy="116" rx="46" ry="26" transform="rotate(12 350 116)"/>

        <!-- Requested route motif: ○────╮ / │ / ╭────╯ / │ / ╰──○ -->
        <circle cx="76" cy="74" r="7"/>
        <path d="M83 74H176C186 74 194 78 200 86L214 102"/>
        <path d="M214 102V166"/>
        <path d="M214 166H148C136 166 126 160 118 150L104 132"/>
        <path d="M104 132V212"/>
        <path d="M104 212C104 226 114 236 128 236H170C182 236 192 242 200 252"/>
        <path d="M200 252H244C255 252 264 246 270 236"/>
        <path d="M270 236L276 228"/>
        <circle cx="284" cy="224" r="7"/>

        <!-- Bike-course turns and route bends -->
        <path d="M38 348C74 322 110 312 140 318C170 324 198 350 232 350C266 350 296 324 328 324C362 324 386 342 424 362"/>
        <path d="M66 388C94 364 124 354 150 360C176 366 194 390 222 392C250 394 270 374 298 370C326 366 356 376 390 402"/>
        <path d="M120 300C146 272 172 256 198 258C224 260 242 286 268 288C294 290 316 272 340 264C364 256 390 258 416 276"/>

        <!-- Run-course intersections and subtle crossings -->
        <path d="M86 246C128 222 160 222 186 246C212 270 244 270 286 246C326 222 360 220 406 242"/>
        <path d="M156 220C152 252 164 280 190 302C216 324 250 332 286 324C322 316 350 294 370 264"/>
        <path d="M320 222C334 246 344 266 360 284C378 304 404 314 438 314"/>
        <path d="M262 194C286 194 306 204 322 222C338 240 348 258 360 284"/>

        <!-- Organic route connection accents -->
        <path d="M54 70C90 96 110 120 118 146C126 172 118 196 104 224"/>
        <path d="M436 70C404 94 382 118 374 146C366 174 372 200 386 226"/>
        <path d="M44 430C82 406 114 396 142 402C170 408 194 426 220 434"/>
        <path d="M438 430C400 408 368 398 340 404C312 410 288 426 260 436"/>

        <!-- Start / finish markers represented as outlined circles -->
        <circle cx="92" cy="328" r="7"/>
        <circle cx="388" cy="154" r="7"/>
        <circle cx="230" cy="86" r="7"/>
        <circle cx="308" cy="372" r="7"/>
      </g>
    </pattern>
  </defs>
  <rect width="1200" height="1200" fill="url(#bergman-triathlon-pattern)"/>
</svg>
